<svg xmlns="http://www.w3.org/2000/svg" viewBox="0 0 333333 227638" shape-rendering="geometricPrecision" text-rendering="geometricPrecision" image-rendering="optimizeQuality" fill-rule="evenodd" clip-rule="evenodd"><path d="M207199 0c27398 0 52246 11148 70244 29074 17998 17998 29074 42773 29074 70244 0 20039-5976 38766-16177 54359l42992 46854-29657 27107-41461-45615c-15739 10493-34685 16614-55015 16614-22618 0-43497-7599-60221-20335-10419 10488-20377 20489-28751 28863l-57609-56904-40471 39294L0 169401v-3l60992-59278c19046 19039 37874 37868 57108 56861l8917-9005c-12048-16435-19136-36684-19136-58658 0-27398 11149-52246 29075-70244C154954 11076 179729 0 207200 0zm-64951 142596l39687-40078-23616-23624 66466-585v67051l-22703-22695c-11387 11531-25751 26050-40236 40657 12844 9367 28672 14911 45765 14911 21458 0 40923-8737 54993-22807 14069-14070 22807-33535 22807-54993s-8737-40923-22807-54993c-14069-14069-33535-22807-54993-22807s-40923 8737-54993 22807-22807 33535-22807 54993c0 15528 4576 30011 12437 42162z" fill-rule="nonzero"/></svg>