<svg xmlns="http://www.w3.org/2000/svg" viewBox="0 0 227031 333333" shape-rendering="geometricPrecision" text-rendering="geometricPrecision" image-rendering="optimizeQuality" fill-rule="evenodd" clip-rule="evenodd"><path d="M25055 30653l15964 33387c12614-11083 24852-16304 31889-18685L58267 14487l-25-54-8 4c-816-1676-2264-2867-3935-3440-1699-582-3615-532-5333 283l-56 26 4 8-20673 10067c-1709 833-2915 2274-3485 3927-584 1693-528 3611 300 5344zm186235-11438c679 543 1234 1259 1588 2120 4007 9750 5712 21917 5712 34737 0 13783-1964 28483-5135 41762 8654 16003 13576 34290 13576 53672v155704c0 7190-2937 13721-7669 18453-4731 4732-11263 7669-18453 7669H25974c-7148 0-13643-2920-18349-7626C2920 321001-1 314506-1 307358V151506c0-19463 4963-37821 13684-53872-2872-11485-4261-24378-4261-37075 0-13640 1599-27163 4682-38580 306-1146 965-2104 1828-2787 1675-3093 4281-5706 7661-7351L44266 1774l5 10c56-29 113-58 172-85 4313-2046 9086-2183 13297-740 4239 1454 7926 4507 10032 8833l-10 5c29 56 57 112 84 169l15267 32187c9684-2709 19881-4161 30400-4161 10577 0 20827 1467 30559 4205l15289-32232 46-94 29-60 8-17-8-4c2106-4324 5793-7378 10031-8832 4211-1444 8984-1306 13297 739 59 27 115 56 172 85l5-10 20673 10067c3387 1650 5998 4271 7672 7374zM21873 84713c3372-4607 7083-8952 11093-13000L20688 46036c-428 4741-646 9617-646 14523 0 8173 601 16386 1831 24154zm183442 220c1679-9497 2655-19398 2655-28860 0-4083-181-8068-565-11881l-13219 27644c4027 4077 7748 8456 11129 13097zm-58654-30808l-228-61c-77-21-153-44-229-68-631-172-1069-303-1550-530l-28-13c-9826-3142-20280-4841-31112-4841-10659 0-20952 1644-30641 4690-104 57-209 112-318 164-481 228-918 358-1550 530-76 24-152 47-229 68-302 82-680 184-1123 310-14734 5177-27964 13627-38805 24468-18652 18652-30230 44375-30230 72665v155852c0 4217 1730 8055 4515 10841 2785 2785 6624 4515 10841 4515h174935c4257 0 8133-1746 10944-4558 2812-2812 4558-6687 4558-10944V151509c0-28291-11578-54013-30230-72665-11016-11016-24499-19563-39520-24717zm39531 9915l15964-33387c829-1733 885-3651 300-5344-571-1654-1776-3095-3485-3927l-20673-10067 4-8-57-26c-1718-815-3633-865-5333-282-1671 573-3118 1763-3934 3439l-8-4-15 30-11 24-14642 30868c7037 2381 19275 7602 31889 18685zM33417 143734c-767 2818-3674 4480-6492 3712-2818-767-4480-3674-3712-6491 8131-29541 24419-49409 44120-60824 14984-8682 31904-12435 48688-11808 16731 626 33337 5603 47757 14385 20357 12398 36398 32368 42367 58385 652 2852-1131 5694-3983 6346s-5694-1131-6346-3982c-5281-23024-19502-40711-37554-51706-12883-7847-27702-12293-42613-12850-14858-555-29805 2749-43005 10397-17444 10107-31915 27871-39226 54436zm22408 35471h115956c7306 0 13945 2985 18754 7794s7794 11448 7794 18754v71181c0 7306-2985 13946-7794 18754-4809 4809-11448 7794-18754 7794H55825c-7307 0-13945-2985-18754-7794s-7794-11447-7794-18754v-71181c0-7307 2985-13945 7794-18754s11447-7794 18754-7794zm22091-42346h73464c3452 0 6275 2823 6275 6275v17183c0 3452-2823 6275-6275 6275H77916c-3452 0-6275-2823-6275-6275v-17183c0-3452 2823-6275 6275-6275zm-12240 93148v16227c0 2756-2255 5011-5011 5011s-5011-2254-5011-5011v-16227H39896v46928c0 4375 1794 8357 4683 11246 2889 2890 6871 4683 11246 4683h115956c4375 0 8356-1794 11246-4683 2889-2889 4683-6871 4683-11246v-46928H65676zm-25780-10619h147814v-13634c0-4375-1794-8357-4683-11246s-6871-4683-11246-4683H55825c-4375 0-8357 1794-11246 4683s-4683 6871-4683 11246v13634z" fill-rule="nonzero"/></svg>